<?xml version="1.0" encoding="utf-8"?>
<!-- Generator: Adobe Illustrator 25.3.1, SVG Export Plug-In . SVG Version: 6.00 Build 0)  -->
<svg version="1.1" id="Layer_1" xmlns="http://www.w3.org/2000/svg" xmlns:xlink="http://www.w3.org/1999/xlink" x="0px" y="0px"
	 viewBox="0 0 533.53 1369.66" style="enable-background:new 0 0 533.53 1369.66;" xml:space="preserve">
<style type="text/css">
	.st0{opacity:0.28;}
	.st1{fill:#FEE6CE;stroke:#BE1E2D;stroke-miterlimit:10;}
	.st2{fill:none;stroke:#BE1E2D;stroke-miterlimit:10;}
	.st3{fill:#AA9A8B;stroke:#BE1E2D;stroke-miterlimit:10;}
	.st4{stroke:#BE1E2D;stroke-miterlimit:10;}
	.st5{fill:#00ABC7;stroke:#BE1E2D;stroke-miterlimit:10;}
	.st6{fill:#E71F5E;}
	.st7{fill:#FFFFFF;stroke:#BE1E2D;stroke-miterlimit:10;}
	.st8{fill:#E71F5E;stroke:#BE1E2D;stroke-miterlimit:10;}
	.st9{fill:#B7295B;stroke:#BE1E2D;stroke-miterlimit:10;}
	.st10{fill:none;stroke:#BE1E2D;stroke-width:2;stroke-miterlimit:10;}
	.st11{fill:#606060;}
</style>
<path class="st1" d="M38.56,1086.4v-26.5v-7.26v-22.55v-22.19v-11.58V983.1v-31.91v-15.6v-74.16V657.04V422.41V203.2V61.27
	l0.34-3.14c0,0,314.2-78.97,440.94,89.59l1.52,106.15l1.72,120.48l2.39,167.21l2.41,168.21l2.72,190.4l1.85,129.46
	c0,0-0.71,1.47-2.36,4.18c-4.81,7.9-17.63,26.33-44.31,49.72c-28.08,24.61-71.52,54.72-137.14,83.81c-0.01,0-0.02,0.01-0.03,0.01
	c-3.37,1.5-6.8,2.99-10.29,4.47c-0.47,0.2-0.93,0.4-1.38,0.59c-12.87,5.46-26.53,10.87-41.05,16.18c-8.79,3.22-17.9,6.41-27.33,9.55
	c-14.56,4.86-29.88,9.61-46.01,14.21c-42.25,12.07-90.02,23.18-143.99,32.68v-67.2"/>
<path class="st2" d="M38.57,203.21c42.67-8.39,231.81-37.74,442.8,50.66"/>
<path class="st2" d="M483.08,374.35c-23.69,4.61-47.67,8.78-71.6,12.57c-1.17,0.19-2.33,0.37-3.5,0.55
	c-56.21,8.82-112.05,15.51-163.18,20.56c-9.63,0.95-19.09,1.84-28.35,2.68c-19.56,1.77-38.25,3.3-55.79,4.62
	c-1.76,0.13-3.51,0.26-5.24,0.39l-0.87,0.06c-16.45,1.21-31.82,2.23-45.89,3.09c-7.33,0.44-14.31,0.84-20.9,1.2
	c-20.49,1.13-37.23,1.87-49.2,2.34"/>
<path class="st2" d="M485.48,541.56h-0.01c-48.51,17.75-96.63,33.19-142.6,46.54c-5.82,1.69-11.61,3.35-17.36,4.97
	c-60.72,17.16-117.22,30.63-165.3,40.93c-4.05,0.87-8.04,1.71-11.96,2.53c-1.86,0.39-3.7,0.78-5.53,1.16
	c-1.79,0.37-3.57,0.73-5.34,1.1l-3.97,0.81c-16.55,3.37-31.84,6.32-45.65,8.88c-19.56,3.62-36.16,6.44-49.2,8.56"/>
<path class="st2" d="M487.88,709.77c-26.03,12.82-51.83,24.67-77.14,35.61c-0.92,0.4-1.84,0.8-2.76,1.19
	c-11.85,5.1-23.6,10-35.2,14.7c-1.23,0.5-2.45,0.99-3.67,1.48c-13.08,5.27-25.99,10.29-38.68,15.07h-0.01
	c-1.22,0.46-2.43,0.92-3.64,1.37c-137.29,51.4-249.13,74.91-288.22,82.24"/>
<polygon class="st3" points="159.99,191.29 147.69,191.91 140.36,192.28 89.65,194.83 89.65,88.21 159.66,85.67 "/>
<polygon class="st4" points="147.69,191.91 140.36,192.28 89.65,194.83 89.65,99.21 147.38,97.12 147.48,128.89 147.52,140.45 "/>
<polygon class="st5" points="140.36,192.28 89.65,194.83 89.65,105.81 140.08,103.97 140.16,129.09 140.2,140.72 "/>
<polygon class="st3" points="161.1,246.37 160.87,333.52 160.86,336.78 160.66,415.37 149.41,416.13 142.57,416.59 87.76,420.27 
	87.47,267.67 87.46,261.12 87.44,249.69 "/>
<polyline class="st4" points="87.47,267.67 87.76,420.27 142.57,416.59 149.41,416.13 149.59,345.78 149.62,333.56 149.82,258.32 
	87.46,261.12 "/>
<polygon class="st5" points="142.96,265.17 142.78,333.58 142.75,345.82 142.57,416.59 87.76,420.27 87.47,267.67 "/>
<polygon class="st3" points="280.32,252.34 279.88,404.31 269.41,405.42 262.78,406.12 216.45,411.04 216.45,247.69 "/>
<polygon class="st4" points="269.82,263.35 269.64,326.48 269.6,338.18 269.41,405.42 262.78,406.12 216.45,411.04 216.45,259.47 
	"/>
<polygon class="st5" points="263.18,269.54 263.01,326.6 262.98,338.34 262.78,406.12 216.45,411.04 216.45,266.14 "/>
<polygon class="st3" points="369.02,269.82 368.83,323.24 368.82,326.09 368.82,326.23 368.58,393.02 358.99,394.29 353.25,395.05 
	325.51,398.73 325.65,277.86 325.66,271.91 325.67,261.63 "/>
<polygon class="st4" points="359.4,278.28 359.24,323.35 359.2,335.59 358.99,394.29 353.25,395.05 325.51,398.73 325.65,277.86 
	325.66,271.91 "/>
<polygon class="st5" points="353.65,283.14 353.51,323.41 353.46,335.63 353.25,395.05 325.51,398.73 325.65,277.86 "/>
<polygon class="st3" points="437.15,287.07 436.68,328.2 436.62,333.36 436.05,382.63 428.38,383.97 422.9,384.93 407.98,387.53 
	407.98,280.52 "/>
<polyline class="st4" points="428.38,383.97 428.96,333.49 429.1,321.04 429.41,294.37 407.98,289.55 407.98,295.88 407.98,321.16 
	407.93,321.16 407.98,329.09 407.98,387.53 422.9,384.93 "/>
<polygon class="st5" points="423.88,299.46 423.63,321.07 423.49,333.59 422.9,384.93 407.98,387.53 407.98,329.09 407.93,321.16 
	407.98,321.16 407.98,295.88 "/>
<polygon class="st3" points="438.04,431.73 437.6,558.26 429.33,561.02 423.38,563 407.98,568.13 407.98,439.65 "/>
<polygon class="st4" points="407.98,568.13 429.33,561.02 429.53,504.79 429.57,492.41 429.74,443.02 407.98,448.75 "/>
<polygon class="st5" points="423.77,451.42 423.62,493.84 423.58,506.17 423.38,563 407.98,568.13 407.98,499.43 407.93,497.6 
	407.98,497.59 407.98,455.58 "/>
<polygon class="st3" points="371.9,447.22 370.57,579.72 361.21,582.55 356.4,584.01 325.51,593.35 325.51,454.47 "/>
<polygon class="st4" points="362.44,459.49 361.94,509.8 361.81,522.87 361.21,582.55 356.4,584.01 325.51,593.35 325.51,465.26 "/>
<polygon class="st5" points="357.58,466.35 357.13,510.7 357,523.68 356.4,584.01 325.51,593.35 325.51,471.36 "/>
<polygon class="st3" points="280.32,460.49 279.72,525.97 279.6,539.73 279,605.6 267.98,608.33 262.27,609.75 216.45,621.11 
	216.45,467.72 "/>
<polyline class="st4" points="216.45,485.28 216.45,621.11 262.27,609.75 267.98,608.33 268.59,541.57 268.71,527.88 269.21,473.76 
	216.45,479.74 "/>
<polygon class="st5" points="263.46,479.96 263.01,528.86 262.89,542.52 262.27,609.75 216.45,621.11 216.45,485.28 "/>
<polygon class="st3" points="160.21,634.13 148.25,636.57 142.72,637.7 87.76,648.93 87.48,500.3 87.46,494.1 87.44,481.28 
	159.99,475.53 "/>
<polygon class="st4" points="148.25,636.57 142.72,637.7 87.76,648.93 87.48,500.3 87.46,494.1 148.05,489.3 "/>
<polygon class="st5" points="142.72,637.7 87.76,648.93 87.48,500.3 142.52,495.94 "/>
<polygon class="st3" points="161.54,832.32 149.3,835.42 142.62,837.1 89.84,850.45 89.84,704.87 160.66,692.31 "/>
<polygon class="st4" points="149.3,835.42 142.62,837.1 89.84,850.45 89.84,718.41 148.49,708.01 "/>
<polygon class="st5" points="142.62,837.1 89.84,850.45 89.84,725.2 141.85,715.97 "/>
<polygon class="st3" points="280.1,795.83 268.93,799.46 263.13,801.35 216.45,816.55 216.45,679.56 279,661.34 "/>
<polygon class="st4" points="268.93,799.46 263.13,801.35 216.45,816.55 216.45,692.93 267.94,677.93 "/>
<polygon class="st5" points="263.13,801.35 216.45,816.55 216.45,699.21 262.19,685.89 "/>
<polygon class="st3" points="372.78,761.32 363.01,765.13 357.23,767.38 326.78,779.24 327.34,668.79 327.38,661.67 327.44,650.06 
	372.34,632.14 "/>
<polygon class="st4" points="326.78,779.24 363.01,765.13 362.8,703.55 362.76,690.91 362.61,648.29 327.38,661.67 "/>
<polyline class="st2" points="327.34,668.79 326.78,779.24 357.23,767.38 "/>
<polygon class="st5" points="357.23,767.38 326.78,779.24 327.34,668.79 356.86,657.58 356.98,692.9 357.02,705.57 "/>
<polygon class="st3" points="440.36,606.26 438.48,732.78 430,736.63 425.24,738.79 407.98,746.63 407.85,622.52 "/>
<polyline class="st4" points="432.4,735.66 433.4,619.86 407.98,631.98 407.98,637.76 407.98,746.63 425.24,738.79 "/>
<polygon class="st5" points="427.42,629.48 425.24,738.79 407.98,746.63 407.98,637.76 "/>
<polygon class="st3" points="281.65,93.08 281.43,146.17 281.42,147.72 281.21,199.26 270.47,198.24 264.74,197.69 220.6,193.5 
	220.56,128.34 220.56,127.64 220.54,104.08 220.54,97.87 220.53,88.21 "/>
<polygon class="st4" points="270.87,101.87 270.74,133.25 270.68,146.57 270.47,198.24 264.74,197.69 220.6,193.5 220.56,128.34 
	220.55,127.64 220.56,127.64 220.54,104.08 220.54,97.87 "/>
<polygon class="st5" points="265.12,107.62 265.01,132.61 264.96,145.96 264.74,197.69 220.6,193.5 220.56,128.34 220.55,127.64 
	220.56,127.64 220.54,104.08 "/>
<polygon class="st3" points="370.13,116.09 369.96,154.79 369.9,168.91 369.69,216.73 361.32,214.78 355.38,213.4 327.88,207 
	328.22,121.34 328.25,114.64 328.29,104.81 "/>
<polyline class="st4" points="328.22,121.34 327.88,207 355.38,213.4 361.32,214.78 361.54,166.15 361.6,152.44 361.73,123.66 
	328.25,114.64 "/>
<polygon class="st5" points="355.75,128.75 355.65,150.77 355.6,164.18 355.38,213.4 327.88,207 328.22,121.34 "/>
<polygon class="st3" points="436.93,236.42 429.16,234 424.71,232.61 409.95,228.01 410.11,184.62 410.16,172.65 410.26,146.14 
	410.28,140.63 410.31,131.81 436.49,147.5 "/>
<polyline class="st4" points="429.16,234 428.96,193.15 428.89,179.38 428.75,151.7 410.28,140.63 410.26,146.14 410.16,172.65 
	410.01,184.57 410.11,184.62 409.95,228.01 424.71,232.61 "/>
<polygon class="st5" points="409.95,228.01 410.11,184.62 410.01,184.57 410.16,172.65 410.26,146.14 424.32,154.57 424.44,177.53 
	424.51,191.13 424.71,232.61 "/>
<polygon class="st7" points="159.66,140 90.15,142.57 89.82,130.46 159.58,128.55 "/>
<polygon class="st7" points="160.74,345.72 87.66,346.13 87.75,333.77 160.91,333.52 "/>
<polygon class="st7" points="280.02,337.92 216.82,339.49 216.48,327.38 280.02,326.31 "/>
<polygon class="st7" points="368.7,335.51 325.98,335.84 325.65,323.73 368.86,323.24 "/>
<polygon class="st7" points="436.71,333.36 436.62,333.36 428.96,333.49 423.49,333.59 408.01,333.85 407.98,329.09 407.93,321.16 
	407.98,321.16 423.63,321.07 429.1,321.04 436.63,321 436.68,328.2 "/>
<polygon class="st7" points="437.71,490.46 437.71,502.9 429.53,504.79 423.58,506.17 408.26,509.71 407.98,499.43 407.93,497.6 
	407.98,497.59 423.62,493.84 429.57,492.41 "/>
<polygon class="st7" points="371.02,521.32 325.65,528.95 325.56,516.67 371.18,508.05 "/>
<polygon class="st7" points="279.61,539.73 216.82,550.18 216.57,536.91 279.77,525.96 "/>
<polygon class="st7" points="160,567.44 87.66,573.08 87.89,560.14 160.11,554.5 "/>
<polygon class="st7" points="161.16,766.18 89.82,777.96 89.82,764.86 160.99,752.25 "/>
<path class="st6" d="M492.24,1029.86c-0.59,0.81-0.95,1.83-1.42,2.75c0,0.01-0.01,0.01-0.01,0.02c-0.21,0.42-0.44,0.82-0.71,1.18
	c-14.67,21.71-28.19,34.8-44.76,49.58c-38.68,34.52-85.89,61.03-136.69,83.87c-0.01,0.01-0.02,0.02-0.03,0.01
	c-3.42,1.55-6.85,3.06-10.29,4.55c-0.47,0.2-0.93,0.4-1.38,0.59c-13.37,5.76-26.9,11.16-40.53,16.23h-0.02
	c-9.65,3.58-19.33,7.01-29.03,10.26c-14.97,5.05-29.95,9.71-44.81,14.01c-51.34,14.9-101.19,25.58-143.99,33.16V1059.9
	c3.77-0.76,7.5-1.52,11.21-2.29c4.49-0.92,8.93-1.85,13.33-2.78h0.01c17.48-3.7,34.26-7.44,50.37-11.2
	c6.98-1.62,13.83-3.25,20.55-4.89c4.3-1.04,8.56-2.09,12.76-3.14c9.26-2.3,18.29-4.62,27.07-6.94c6.8-1.79,13.45-3.58,19.97-5.38
	l0.08-0.02c1.88-0.52,3.76-1.04,5.61-1.56c4.37-1.21,8.67-2.43,12.9-3.65c11.09-3.18,21.76-6.37,32.01-9.54
	c6.8-2.11,13.41-4.21,19.85-6.3c4.4-1.43,8.72-2.86,12.95-4.28c2.26-0.76,4.5-1.52,6.72-2.28c8.85-3.03,17.34-6.04,25.47-9.03
	c1.69-0.62,3.37-1.24,5.03-1.86c1.56-0.58,3.1-1.16,4.63-1.73c1.78-0.68,3.55-1.35,5.29-2.02c1.25-0.48,2.5-0.96,3.73-1.44
	c4.18-1.62,8.25-3.24,12.23-4.84c4.79-1.93,9.43-3.84,13.92-5.75l0.03-0.01c4.55-1.92,8.94-3.82,13.2-5.71
	c3.73-1.65,7.35-3.28,10.86-4.9c10.21-4.72,19.55-9.3,28.07-13.73c4.05-2.1,7.91-4.16,11.59-6.19
	c57.71-31.73,72.35-53.91,72.35-53.91l0.25,15.64L492.24,1029.86z"/>
<polygon class="st7" points="279.28,729.69 216.48,748.27 216.57,736.32 279.11,716.08 "/>
<polygon class="st7" points="372.51,700.16 327.22,715.97 327.22,703.14 372.51,687.55 "/>
<polygon class="st7" points="439.37,673.12 408.01,684.89 408.18,672.62 439.53,660.18 "/>
<polygon class="st7" points="281.43,134.44 281.43,147.72 281.42,147.72 270.68,146.57 264.96,145.96 220.68,141.23 220.56,128.34 
	220.55,127.64 220.56,127.64 265.01,132.61 270.74,133.25 "/>
<polygon class="st7" points="370.02,168.95 328.22,155.13 328.22,143.07 370.19,154.85 "/>
<polygon class="st3" points="216.62,863.73 336.07,822.59 473.65,832.32 293.16,914.61 "/>
<polygon class="st7" points="263.96,907.53 379.42,865.94 377.65,1016.8 264.4,1036.71 "/>
<polygon class="st7" points="436.71,196.66 428.96,193.15 424.51,191.13 410.11,184.62 410.01,184.57 410.16,172.65 410.17,171.61 
	424.44,177.53 428.89,179.38 436.55,182.56 "/>
<polygon class="st5" points="277.23,917.26 314.83,904.88 314.39,997.34 277.23,1007.51 "/>
<polygon class="st4" points="367.48,886.29 367.48,980.52 324.57,994.68 323.24,901.34 "/>
<polygon class="st8" points="445.78,1021.23 445.78,1157.48 308.64,1193.32 308.64,1048.21 "/>
<polygon class="st9" points="308.5,1048.34 244.49,1040.69 244.49,1187.57 308.64,1193.32 "/>
<path class="st7" d="M38.57,1094.49l173.86-39.65v-7.04v-28.05v-1.71v-20.31v-21.95v-79.54c-25.71,10.51-145.6,33.9-173.86,39.34
	v15.6v31.91v13.22v11.58v22.19v22.55v7.26v26.5"/>
<polygon class="st5" points="63.11,946.85 134.12,932.08 133.78,964.1 62.95,978.53 "/>
<polygon class="st5" points="63.11,991.97 134.12,977.21 134,1065.24 63.11,1080.95 "/>
<polygon class="st5" points="49.62,948.89 49.28,980.91 38.56,983.1 38.56,951.19 "/>
<polyline class="st5" points="38.56,1086.4 38.56,1059.9 38.56,1052.64 38.56,1030.09 38.56,1007.9 38.56,996.32 49.62,994.02 
	49.65,1005.85 49.7,1028.02 49.75,1050.52 49.77,1057.61 49.83,1083.9 49.84,1087.59 38.56,1089.2 "/>
<polygon class="st5" points="146.95,929.54 200.03,915.38 199.7,946.46 146.95,960.51 "/>
<polygon class="st5" points="146.72,973.89 199.81,959.29 199.37,1052.86 146.83,1065.13 "/>
<path class="st8" d="M38.56,1086.4l11.27-2.5l13.28-2.95l8.93-1.98l41.5-9.21l20.46-4.54l12.83-2.85l27.1-6.02l25.45-5.65
	l13.04-2.89l32.01-7.11l0.06-0.01v146.88c0,0-5.77,4.09-15.93,10.57c-0.39,0.25-0.79,0.5-1.2,0.76
	c-10.83,6.87-26.28,16.21-44.81,26.14c-39.08,20.95-91.88,44.5-143.99,52.95v-31.92v-1.04v-67.2"/>
<polygon class="st6" points="330.54,870.7 216.62,863.73 336.07,822.59 473.65,832.32 "/>
<g>
	<line class="st10" x1="182.39" y1="1128.51" x2="182.56" y2="1187.32"/>
	<line class="st10" x1="118.69" y1="1124.19" x2="118.85" y2="1183"/>
	<line class="st10" x1="47.02" y1="1119.88" x2="47.18" y2="1178.69"/>
	<polyline class="st10" points="38.56,1119.52 47.02,1120.05 118.68,1124.57 182.39,1128.59 196.82,1129.5 182.55,1162.02 
		182.48,1162.02 118.78,1157.4 47.11,1152.2 38.56,1151.59 	"/>
</g>
<polygon class="st9" points="242.61,865.39 336.18,834.53 473.65,832.32 331.87,870.37 "/>
<line class="st2" x1="336.1" y1="834.89" x2="336.1" y2="822.61"/>
<path class="st1" d="M417.69,1026.98l-11.28,1.99l0-187.8c3.89-2.58,7.85-3.32,11.94,0L417.69,1026.98z"/>
<path class="st1" d="M340.49,1042.46l-12.39,2.65V855.33c3.89-2.58,7.85-3.32,11.94,0L340.49,1042.46z"/>
<g>
	<line class="st10" x1="113.38" y1="994.29" x2="113.54" y2="1069.86"/>
	<line class="st10" x1="173.77" y1="983.01" x2="173.93" y2="1057.03"/>
	<line class="st10" x1="244.44" y1="970.29" x2="244.44" y2="1047.52"/>
	<line class="st10" x1="319.09" y1="977.1" x2="318.93" y2="1046.39"/>
	<line class="st10" x1="388.94" y1="961" x2="389.1" y2="1032.45"/>
	<line class="st10" x1="439.87" y1="949.39" x2="439.7" y2="1022.33"/>
	<line class="st10" x1="426.59" y1="952.21" x2="426.59" y2="1025.32"/>
	<polyline class="st10" points="440.03,949.34 426.59,952.42 417.95,954.4 406.41,957.04 388.93,961.04 378.28,963.48 
		367.48,965.95 354.28,968.97 354.25,968.98 340.32,972.17 328.1,974.97 324.29,975.84 319.26,976.99 314.49,976.54 304.29,975.58 
		277.23,973.02 264.18,971.79 244.27,969.91 212.42,975.79 199.72,978.14 146.74,987.92 134.09,990.26 63.11,1003.37 49.65,1005.85 
		38.56,1007.9 	"/>
	<polyline class="st10" points="440.03,971.57 439.81,971.62 426.59,974.65 417.87,976.64 406.41,979.26 388.98,983.25 
		378.01,985.76 340.38,994.38 328.1,997.19 319.7,999.11 319.04,999.05 311,998.27 283.95,995.65 277.23,995 264.25,993.74 
		244.43,991.83 244.27,991.81 212.42,997.74 199.62,1000.12 173.81,1004.92 146.76,1009.96 134.07,1012.32 113.43,1016.16 
		63.11,1025.53 49.7,1028.02 38.56,1030.09 	"/>
	<polyline class="st10" points="439.7,992.97 426.59,996.11 417.79,998.21 406.41,1000.93 389.03,1005.09 377.76,1007.78 
		340.43,1016.71 328.1,1019.66 319.7,1021.67 318.98,1021.59 264.33,1015.81 244.43,1013.71 212.42,1019.76 199.51,1022.2 
		193.91,1023.26 193.83,1023.28 173.86,1027.05 146.79,1032.17 134.04,1034.59 113.47,1038.47 63.11,1048 49.75,1050.52 
		38.56,1052.64 	"/>
</g>
<polygon class="st9" points="182.55,1186.9 182.55,1244.64 38.56,1303.83 38.56,1177.83 47.18,1178.37 118.85,1182.89 "/>
<polygon points="277.23,917.26 314.83,904.88 314.39,997.34 "/>
<polygon points="146.95,929.54 199.7,946.46 200.03,915.38 "/>
</svg>
