<svg xmlns="http://www.w3.org/2000/svg" viewBox="0 0 300 300"><defs><style>.cls-1{fill:#67539f;}.cls-2{fill:#b196c6;}.cls-3,.cls-7{fill:#1d1d1b;}.cls-4{fill:#faec57;}.cls-10,.cls-4,.cls-5,.cls-6,.cls-8,.cls-9{stroke:#000;stroke-miterlimit:10;stroke-width:1.5px;}.cls-5{fill:#f4ba36;}.cls-6{fill:#e87971;}.cls-7{font-size:24px;font-family:CenturyGothic-Bold, Century Gothic;font-weight:700;}.cls-8{fill:#eb5a4a;}.cls-9{fill:#688ac6;}.cls-10{fill:#41836b;}</style></defs><g id="Слой_2" data-name="Слой 2"><g id="Слой_11_копия_" data-name="Слой 11 (копия)"><rect width="300" height="300"/><path class="cls-1" d="M48.3,205.1v46.19a11.79,11.79,0,0,1-11.79,11.79H0V193.31H36.51a11.83,11.83,0,0,1,4.76,1h0a9.23,9.23,0,0,1,1.17.6,9.36,9.36,0,0,1,1.12.73A11.76,11.76,0,0,1,48.3,205.1Z"/><path class="cls-1" d="M43,194.38a11,11,0,0,0-1.22-.65,11.6,11.6,0,0,0-1.27-.51,12.4,12.4,0,0,0-4-.66H0v1.5H36.51a10.84,10.84,0,0,1,5.34,1.39,8.55,8.55,0,0,1,1.08.68,10.16,10.16,0,0,1,1,.82,11,11,0,0,1,3.6,8.15v46.19a11,11,0,0,1-11,11H0v1.5H36.51a12.55,12.55,0,0,0,12.54-12.54V205.1A12.53,12.53,0,0,0,43,194.38Z"/><rect class="cls-1" x="60.78" y="192.82" width="69.77" height="69.77" rx="11.79"/><path class="cls-1" d="M125.26,193.89a11,11,0,0,0-1.22-.65,9.9,9.9,0,0,0-1.27-.51,12.4,12.4,0,0,0-4-.66H72.57A12.55,12.55,0,0,0,60,204.61v46.2a12.41,12.41,0,0,0,.37,3s0,0,0,0a11.25,11.25,0,0,0,.38,1.29,11.72,11.72,0,0,0,.55,1.26,12.54,12.54,0,0,0,11.23,7h46.19a12.55,12.55,0,0,0,12.54-12.53v-46.2A12.55,12.55,0,0,0,125.26,193.89Zm4.54,56.92a11,11,0,0,1-11,11H72.57a11,11,0,0,1-8.74-4.3,9.83,9.83,0,0,1-.74-1.08h0a10.26,10.26,0,0,1-.59-1.14,10.76,10.76,0,0,1-1-4.5v-46.2a11,11,0,0,1,11-11h46.19a10.88,10.88,0,0,1,5.35,1.4,9.12,9.12,0,0,1,1.07.67,10.16,10.16,0,0,1,1,.82,11,11,0,0,1,3.6,8.15Z"/><rect class="cls-1" x="143.03" y="192.33" width="69.77" height="69.77" rx="11.79"/><path class="cls-1" d="M207.51,193.39c-.4-.23-.8-.45-1.22-.64a9.9,9.9,0,0,0-1.27-.51,12.34,12.34,0,0,0-4-.66h-46.2a12.56,12.56,0,0,0-12.54,12.54v46.2a12.39,12.39,0,0,0,.37,3,11.46,11.46,0,0,0,.39,1.3,13.14,13.14,0,0,0,.55,1.27,12.56,12.56,0,0,0,11.23,7H201a12.56,12.56,0,0,0,12.54-12.54v-46.2A12.56,12.56,0,0,0,207.51,193.39Zm4.55,56.93a11.06,11.06,0,0,1-11,11h-46.2a11,11,0,0,1-8.74-4.31,10.5,10.5,0,0,1-.75-1.09h0a9.32,9.32,0,0,1-.59-1.13,10.91,10.91,0,0,1-1-4.5v-46.2a11.06,11.06,0,0,1,11-11H201a10.83,10.83,0,0,1,5.33,1.39,8.55,8.55,0,0,1,1.08.68,11.57,11.57,0,0,1,1,.82,11,11,0,0,1,3.6,8.15Z"/><rect class="cls-1" x="225.29" y="191.85" width="69.77" height="69.77" rx="11.79"/><path class="cls-1" d="M289.76,192.92a11,11,0,0,0-1.22-.65,9.71,9.71,0,0,0-1.26-.5,12.14,12.14,0,0,0-4-.67h-46.2a12.55,12.55,0,0,0-12.54,12.54v46.19a12.39,12.39,0,0,0,.37,3,11.22,11.22,0,0,0,.94,2.57,12.54,12.54,0,0,0,11.23,7h46.2a12.55,12.55,0,0,0,12.54-12.54V203.64A12.52,12.52,0,0,0,289.76,192.92Zm4.55,56.91a11,11,0,0,1-11,11h-46.2a11,11,0,0,1-8.74-4.31,11.69,11.69,0,0,1-.75-1.09h0c-.21-.37-.41-.74-.59-1.13a10.91,10.91,0,0,1-1-4.5V203.64a11.06,11.06,0,0,1,11-11h46.2A10.9,10.9,0,0,1,288.6,194a8.55,8.55,0,0,1,1.08.68,11.19,11.19,0,0,1,1,.81h0a11,11,0,0,1,3.61,8.16Z"/><path class="cls-1" d="M22.38,120.54v46.2a11.79,11.79,0,0,1-11.79,11.79H0V108.75H10.59a11.73,11.73,0,0,1,4.74,1h0a8.72,8.72,0,0,1,1.18.6,10.77,10.77,0,0,1,1.12.73A11.8,11.8,0,0,1,22.38,120.54Z"/><path class="cls-1" d="M17.08,109.82a11,11,0,0,0-1.22-.65,9.35,9.35,0,0,0-1.27-.51,12.34,12.34,0,0,0-4-.66H0v1.5H10.59a10.9,10.9,0,0,1,5.33,1.38,8.55,8.55,0,0,1,1.08.68,11.19,11.19,0,0,1,1,.81h0a11,11,0,0,1,3.61,8.16v46.2a11.06,11.06,0,0,1-11,11H0v1.5H10.59a12.56,12.56,0,0,0,12.54-12.54v-46.2A12.53,12.53,0,0,0,17.08,109.82Z"/><rect class="cls-1" x="34.86" y="108.26" width="69.77" height="69.77" rx="11.79"/><path class="cls-1" d="M99.34,109.33a11,11,0,0,0-1.22-.65,9.9,9.9,0,0,0-1.27-.51,12.4,12.4,0,0,0-4-.66H46.65A12.56,12.56,0,0,0,34.1,120.05v46.2a12.33,12.33,0,0,0,.37,3,11.46,11.46,0,0,0,.39,1.3,11.72,11.72,0,0,0,.55,1.26h0a12.53,12.53,0,0,0,11.23,7H92.84a12.55,12.55,0,0,0,12.54-12.54v-46.2A12.55,12.55,0,0,0,99.34,109.33Zm4.54,56.92a11,11,0,0,1-11,11H46.65a11.29,11.29,0,0,1-9.5-5.4h0a12,12,0,0,1-.58-1.13,10.76,10.76,0,0,1-1-4.5v-46.2a11.06,11.06,0,0,1,11-11H92.84a11,11,0,0,1,5.35,1.39,10.76,10.76,0,0,1,1.07.68,10.16,10.16,0,0,1,1,.82,11,11,0,0,1,3.6,8.15Z"/><rect class="cls-1" x="117.11" y="107.78" width="69.77" height="69.77" rx="11.79"/><path class="cls-1" d="M181.59,108.85a13.34,13.34,0,0,0-2.5-1.17,12.61,12.61,0,0,0-4-.65H128.9a12.55,12.55,0,0,0-12.54,12.54v46.19a12.9,12.9,0,0,0,.36,3,11.66,11.66,0,0,0,.4,1.31h0c.16.43.35.85.55,1.26a12.55,12.55,0,0,0,11.23,7h46.19a12.55,12.55,0,0,0,12.54-12.54V119.57A12.53,12.53,0,0,0,181.59,108.85Zm4.54,56.91a11,11,0,0,1-11,11H128.9a11,11,0,0,1-8.73-4.3,8.11,8.11,0,0,1-.75-1.09h0a8.26,8.26,0,0,1-.6-1.14,10.91,10.91,0,0,1-1-4.5V119.57a11,11,0,0,1,11-11h46.19a10.87,10.87,0,0,1,5.35,1.39,9.2,9.2,0,0,1,1.07.68,10.16,10.16,0,0,1,1,.82,11,11,0,0,1,3.6,8.15Z"/><rect class="cls-1" x="199.36" y="107.29" width="69.77" height="69.77" rx="11.79"/><path class="cls-1" d="M263.84,108.36a11,11,0,0,0-1.22-.65,9.35,9.35,0,0,0-1.27-.51,12.34,12.34,0,0,0-4-.66h-46.2a12.55,12.55,0,0,0-12.54,12.54v46.2a12.39,12.39,0,0,0,.37,3,11.46,11.46,0,0,0,.39,1.3h0c.17.43.35.85.55,1.26a12.57,12.57,0,0,0,11.23,7h46.2a12.55,12.55,0,0,0,12.54-12.53v-46.2A12.52,12.52,0,0,0,263.84,108.36Zm4.55,56.92a11.05,11.05,0,0,1-11,11h-46.2a11,11,0,0,1-8.73-4.3,10.5,10.5,0,0,1-.75-1.09,11.21,11.21,0,0,1-.6-1.14,10.91,10.91,0,0,1-1-4.5v-46.2a11,11,0,0,1,11-11h46.2a10.83,10.83,0,0,1,5.33,1.39,9.25,9.25,0,0,1,1.08.67,11.19,11.19,0,0,1,1,.81,0,0,0,0,1,0,0,11,11,0,0,1,3.61,8.16Z"/><path class="cls-1" d="M293.4,106.8H300v69.78h-6.6a11.76,11.76,0,0,1-10-5.57,9.15,9.15,0,0,1-.65-1.19,8.51,8.51,0,0,1-.49-1.21,11.51,11.51,0,0,1-.64-3.82v-46.2A11.79,11.79,0,0,1,293.4,106.8Z"/><path class="cls-1" d="M293.4,106.05a12.56,12.56,0,0,0-12.54,12.54v46.2a12.33,12.33,0,0,0,.37,3,11.46,11.46,0,0,0,.39,1.3,11.87,11.87,0,0,0,.55,1.27,12.56,12.56,0,0,0,11.23,7H300v-1.5h-6.6a11,11,0,0,1-8.74-4.31,11.69,11.69,0,0,1-.75-1.09,12.2,12.2,0,0,1-.58-1.14,10.76,10.76,0,0,1-1-4.5v-46.2a11.06,11.06,0,0,1,11-11H300v-1.5Z"/><rect class="cls-1" x="8.93" y="23.71" width="69.77" height="69.77" rx="11.79"/><path class="cls-1" d="M73.42,24.78h0a10.23,10.23,0,0,0-1.22-.65,9.9,9.9,0,0,0-1.27-.51,12.34,12.34,0,0,0-4-.66H20.72A12.55,12.55,0,0,0,8.18,35.5V81.69a12.39,12.39,0,0,0,.37,3A11.46,11.46,0,0,0,8.94,86a11.87,11.87,0,0,0,.55,1.27,12.54,12.54,0,0,0,11.23,7h46.2A12.55,12.55,0,0,0,79.46,81.69V35.5A12.53,12.53,0,0,0,73.42,24.78ZM78,81.69a11.06,11.06,0,0,1-11,11H20.72A11,11,0,0,1,12,88.42a11.69,11.69,0,0,1-.75-1.09h0a12,12,0,0,1-.58-1.13,10.76,10.76,0,0,1-1-4.5V35.5a11,11,0,0,1,11-11h46.2a10.83,10.83,0,0,1,5.33,1.39,8.55,8.55,0,0,1,1.08.68,11.57,11.57,0,0,1,1,.82A11,11,0,0,1,78,35.5Z"/><rect class="cls-1" x="91.19" y="23.22" width="69.77" height="69.77" rx="11.79"/><path class="cls-1" d="M155.67,24.3h0a12.73,12.73,0,0,0-1.21-.65,10.81,10.81,0,0,0-1.27-.5,12.14,12.14,0,0,0-4-.67H103A12.55,12.55,0,0,0,90.44,35v46.2a12.83,12.83,0,0,0,.36,3,11.66,11.66,0,0,0,.4,1.31h0a12.72,12.72,0,0,0,.54,1.25,12.57,12.57,0,0,0,11.23,7h46.2a12.55,12.55,0,0,0,12.54-12.53V35A12.53,12.53,0,0,0,155.67,24.3Zm4.54,56.91a11,11,0,0,1-11,11H103a11,11,0,0,1-8.73-4.3,9.83,9.83,0,0,1-.74-1.08h0a10.26,10.26,0,0,1-.59-1.14,10.76,10.76,0,0,1-1-4.5V35a11,11,0,0,1,11-11h46.2a10.87,10.87,0,0,1,5.35,1.39,9.2,9.2,0,0,1,1.07.68,10.16,10.16,0,0,1,1,.82,11,11,0,0,1,3.6,8.15Z"/><rect class="cls-1" x="173.44" y="22.73" width="69.77" height="69.77" rx="11.79"/><path class="cls-1" d="M237.92,23.8a11,11,0,0,0-1.22-.65,9.9,9.9,0,0,0-1.27-.51,12.4,12.4,0,0,0-4-.66H185.23a12.55,12.55,0,0,0-12.54,12.54v46.2a12.47,12.47,0,0,0,.37,3h0a11.09,11.09,0,0,0,.38,1.28h0c.16.43.35.85.55,1.26a12.53,12.53,0,0,0,11.23,7h46.19A12.55,12.55,0,0,0,244,80.72V34.52A12.55,12.55,0,0,0,237.92,23.8Zm4.54,56.92a11,11,0,0,1-11,11H185.23a11,11,0,0,1-8.74-4.31,9,9,0,0,1-.74-1.08h0a8.26,8.26,0,0,1-.6-1.14,10.91,10.91,0,0,1-1-4.5V34.52a11.06,11.06,0,0,1,11-11h46.19a11,11,0,0,1,5.35,1.39,9.28,9.28,0,0,1,1.07.69h0a10,10,0,0,1,1,.81,11,11,0,0,1,3.6,8.15Z"/><path class="cls-1" d="M267.48,22.25H300V92H267.48a11.76,11.76,0,0,1-10-5.57,10.39,10.39,0,0,1-.65-1.18,10,10,0,0,1-.49-1.22,11.51,11.51,0,0,1-.64-3.82V34A11.79,11.79,0,0,1,267.48,22.25Z"/><path class="cls-1" d="M267.48,21.5A12.55,12.55,0,0,0,254.94,34V80.23a12.39,12.39,0,0,0,.37,3,11.22,11.22,0,0,0,.94,2.57,12.54,12.54,0,0,0,11.23,7H300v-1.5H267.48A11,11,0,0,1,258.74,87a11.69,11.69,0,0,1-.75-1.09,12.2,12.2,0,0,1-.58-1.14,10.76,10.76,0,0,1-1-4.5V34a11,11,0,0,1,11-11H300V21.5Z"/><path class="cls-2" d="M42.82,200v46.19A10.93,10.93,0,0,1,40.44,253h0a11,11,0,0,1-8.65,4.2H0V188.91H31.78a11,11,0,0,1,8.74,4.31,11.69,11.69,0,0,1,.75,1.09h0a12,12,0,0,1,.58,1.13A10.76,10.76,0,0,1,42.82,200Z"/><path d="M44.32,200v46.19a12.43,12.43,0,0,1-1.81,6.48h0a12.54,12.54,0,0,1-10.73,6.05H0v-1.5H31.78a11,11,0,0,0,8.65-4.2h0a10.93,10.93,0,0,0,2.38-6.83V200a10.76,10.76,0,0,0-1-4.5,12,12,0,0,0-.58-1.13h0a11.69,11.69,0,0,0-.75-1.09,11,11,0,0,0-8.74-4.31H0v-1.5H31.78a12.54,12.54,0,0,1,11.23,7,11.87,11.87,0,0,1,.55,1.27A11.46,11.46,0,0,1,44,197,12.39,12.39,0,0,1,44.32,200Z"/><path class="cls-2" d="M125.07,199.46v46.2a11.06,11.06,0,0,1-11,11H67.83a10.83,10.83,0,0,1-5.33-1.39,9.25,9.25,0,0,1-1.08-.67,11.19,11.19,0,0,1-1-.81s0,0,0,0a11.06,11.06,0,0,1-3.61-8.16v-46.2a11.06,11.06,0,0,1,11-11H114a11,11,0,0,1,8.74,4.31,10.5,10.5,0,0,1,.75,1.09,9.58,9.58,0,0,1,.59,1.15A10.86,10.86,0,0,1,125.07,199.46Z"/><path d="M126.2,196.46a11.46,11.46,0,0,0-.39-1.3h0c-.17-.43-.35-.85-.55-1.26a12.56,12.56,0,0,0-11.23-7H67.83a12.56,12.56,0,0,0-12.54,12.54v46.2a12.53,12.53,0,0,0,6.05,10.72,11,11,0,0,0,1.22.65,9.35,9.35,0,0,0,1.27.51,12.34,12.34,0,0,0,4,.66H114a12.56,12.56,0,0,0,12.54-12.54v-46.2A12.39,12.39,0,0,0,126.2,196.46Zm-1.13,49.2a11.06,11.06,0,0,1-11,11H67.83a10.83,10.83,0,0,1-5.33-1.39,9.25,9.25,0,0,1-1.08-.67,11.19,11.19,0,0,1-1-.81s0,0,0,0a11.06,11.06,0,0,1-3.61-8.16v-46.2a11.06,11.06,0,0,1,11-11H114a11,11,0,0,1,8.74,4.31,10.5,10.5,0,0,1,.75,1.09,9.58,9.58,0,0,1,.59,1.15,10.86,10.86,0,0,1,1,4.49Z"/><path d="M208.46,196a11.66,11.66,0,0,0-.4-1.31h0c-.16-.43-.35-.85-.55-1.26a12.57,12.57,0,0,0-11.23-7H150.09A12.55,12.55,0,0,0,137.55,199v46.2a12.55,12.55,0,0,0,6,10.72,11,11,0,0,0,1.22.65c.41.19.84.36,1.27.51a12.4,12.4,0,0,0,4,.66h46.19a12.55,12.55,0,0,0,12.54-12.54V199A12.83,12.83,0,0,0,208.46,196Zm-1.14,49.2a11,11,0,0,1-11,11H150.09a10.87,10.87,0,0,1-5.35-1.39,9.2,9.2,0,0,1-1.07-.68,10.16,10.16,0,0,1-1-.82,11,11,0,0,1-3.6-8.15V199a11.06,11.06,0,0,1,11-11h46.19a11,11,0,0,1,8.74,4.31,9.83,9.83,0,0,1,.74,1.08h0a10.26,10.26,0,0,1,.59,1.14,10.76,10.76,0,0,1,1,4.5Z"/><path class="cls-2" d="M207.32,199v46.2a11,11,0,0,1-11,11H150.09a10.87,10.87,0,0,1-5.35-1.39,9.2,9.2,0,0,1-1.07-.68,10.16,10.16,0,0,1-1-.82,11,11,0,0,1-3.6-8.15V199a11.06,11.06,0,0,1,11-11h46.19a11,11,0,0,1,8.74,4.31,9.83,9.83,0,0,1,.74,1.08h0a10.26,10.26,0,0,1,.59,1.14A10.76,10.76,0,0,1,207.32,199Z"/><path class="cls-2" d="M289.57,198.49v46.19a11,11,0,0,1-11,11h-46.2a11,11,0,0,1-5.35-1.39,9.28,9.28,0,0,1-1.07-.69h0a10,10,0,0,1-1-.81,11,11,0,0,1-3.6-8.15V198.49a11,11,0,0,1,11-11h46.2a11,11,0,0,1,8.74,4.32,12.9,12.9,0,0,1,.74,1.08,11.28,11.28,0,0,1,1.55,5.64Z"/><path d="M290.7,195.48h0a11.25,11.25,0,0,0-.38-1.29,11.72,11.72,0,0,0-.55-1.26,12.52,12.52,0,0,0-11.22-7h-46.2a12.55,12.55,0,0,0-12.54,12.54v46.19a12.53,12.53,0,0,0,6,10.72,11.91,11.91,0,0,0,1.22.65,11.6,11.6,0,0,0,1.27.51,12.4,12.4,0,0,0,4,.66h46.2a12.55,12.55,0,0,0,12.53-12.54V198.49A12.41,12.41,0,0,0,290.7,195.48Zm-1.13,49.2a11,11,0,0,1-11,11h-46.2a11,11,0,0,1-5.35-1.39,9.28,9.28,0,0,1-1.07-.69h0a10,10,0,0,1-1-.81,11,11,0,0,1-3.6-8.15V198.49a11,11,0,0,1,11-11h46.2a11,11,0,0,1,8.74,4.32,12.9,12.9,0,0,1,.74,1.08,11.28,11.28,0,0,1,1.55,5.64Z"/><path class="cls-2" d="M16.89,115.39v46.2a11.06,11.06,0,0,1-11,11H0V104.35H5.85a11,11,0,0,1,8.74,4.31,9.83,9.83,0,0,1,.74,1.08h0a9.32,9.32,0,0,1,.59,1.13A11,11,0,0,1,16.89,115.39Z"/><path d="M18.39,115.39v46.2A12.55,12.55,0,0,1,5.85,174.13H0v-1.5H5.85a11.06,11.06,0,0,0,11-11v-46.2a11,11,0,0,0-1-4.51,9.32,9.32,0,0,0-.59-1.13h0a9.83,9.83,0,0,0-.74-1.08,11,11,0,0,0-8.74-4.31H0v-1.5H5.85a12.53,12.53,0,0,1,11.23,7,11.72,11.72,0,0,1,.55,1.26,11.25,11.25,0,0,1,.38,1.29h0A12.41,12.41,0,0,1,18.39,115.39Z"/><path d="M100.28,111.9a11.46,11.46,0,0,0-.39-1.3h0c-.17-.43-.35-.85-.55-1.26a12.56,12.56,0,0,0-11.23-7H41.91A12.56,12.56,0,0,0,29.37,114.9v46.2a12.53,12.53,0,0,0,6,10.71h0a11,11,0,0,0,1.22.65,11.38,11.38,0,0,0,1.26.5,12.14,12.14,0,0,0,4,.67h46.2a12.56,12.56,0,0,0,12.54-12.54V114.9A12.39,12.39,0,0,0,100.28,111.9Zm-1.13,49.2a11.06,11.06,0,0,1-11,11H41.91a10.84,10.84,0,0,1-5.34-1.39,9.12,9.12,0,0,1-1.07-.67c-.36-.26-.7-.54-1-.83a11,11,0,0,1-3.6-8.15V114.9a11.06,11.06,0,0,1,11-11h46.2a11,11,0,0,1,8.74,4.31,11.69,11.69,0,0,1,.75,1.09h0c.21.37.41.74.59,1.13a10.91,10.91,0,0,1,1,4.5Z"/><path class="cls-2" d="M99.15,114.9v46.2a11.06,11.06,0,0,1-11,11H41.91a10.84,10.84,0,0,1-5.34-1.39,9.12,9.12,0,0,1-1.07-.67c-.36-.26-.7-.54-1-.83a11,11,0,0,1-3.6-8.15V114.9a11.06,11.06,0,0,1,11-11h46.2a11,11,0,0,1,8.74,4.31,11.69,11.69,0,0,1,.75,1.09h0c.21.37.41.74.59,1.13A10.91,10.91,0,0,1,99.15,114.9Z"/><rect class="cls-2" x="112.38" y="102.63" width="69.77" height="69.77" rx="11.79"/><path class="cls-3" d="M182.53,111.42a11.46,11.46,0,0,0-.39-1.3,11.06,11.06,0,0,0-.55-1.27,12.56,12.56,0,0,0-11.23-7h-46.2a12.55,12.55,0,0,0-12.54,12.54v46.19a12.55,12.55,0,0,0,6,10.73c.4.24.8.45,1.22.65h0a12.93,12.93,0,0,0,1.27.51,12.54,12.54,0,0,0,4,.65h46.2a12.55,12.55,0,0,0,12.54-12.54V114.42A12.39,12.39,0,0,0,182.53,111.42Zm-1.13,49.19a11,11,0,0,1-11,11h-46.2a10.84,10.84,0,0,1-5.34-1.39,10.53,10.53,0,0,1-1.06-.67h0c-.36-.26-.7-.54-1-.83a11,11,0,0,1-3.6-8.15V114.42a11.06,11.06,0,0,1,11-11h46.2a11,11,0,0,1,8.73,4.3,9.34,9.34,0,0,1,.76,1.1h0a9.32,9.32,0,0,1,.59,1.13,10.91,10.91,0,0,1,1,4.5Z"/><path class="cls-2" d="M263.65,113.93v46.2a11.06,11.06,0,0,1-11,11H206.42a11,11,0,0,1-5.35-1.39,10.76,10.76,0,0,1-1.07-.68,10.16,10.16,0,0,1-1-.82,11,11,0,0,1-3.6-8.15v-46.2a11,11,0,0,1,11-11h46.19a11,11,0,0,1,8.74,4.31,9.83,9.83,0,0,1,.74,1.08h0a10.26,10.26,0,0,1,.59,1.14A10.76,10.76,0,0,1,263.65,113.93Z"/><path d="M264.78,110.92a0,0,0,0,0,0,0,11.25,11.25,0,0,0-.38-1.29,11.72,11.72,0,0,0-.55-1.26,12.53,12.53,0,0,0-11.23-7H206.42a12.55,12.55,0,0,0-12.54,12.54v46.2a12.55,12.55,0,0,0,6,10.72,11,11,0,0,0,1.22.65,10,10,0,0,0,1.28.51,12.34,12.34,0,0,0,4,.66h46.19a12.55,12.55,0,0,0,12.54-12.54v-46.2A12.41,12.41,0,0,0,264.78,110.92Zm-1.13,49.21a11.06,11.06,0,0,1-11,11H206.42a11,11,0,0,1-5.35-1.39,10.76,10.76,0,0,1-1.07-.68,10.16,10.16,0,0,1-1-.82,11,11,0,0,1-3.6-8.15v-46.2a11,11,0,0,1,11-11h46.19a11,11,0,0,1,8.74,4.31,9.83,9.83,0,0,1,.74,1.08h0a10.26,10.26,0,0,1,.59,1.14,10.76,10.76,0,0,1,1,4.5Z"/><path d="M300,100.9v1.5H288.67a11.06,11.06,0,0,0-11,11v46.2a11,11,0,0,0,1.95,6.27c.16.23.33.45.5.66a11.06,11.06,0,0,0,1.15,1.22,10.16,10.16,0,0,0,1,.82,8.55,8.55,0,0,0,1.08.68,10.84,10.84,0,0,0,5.34,1.39H300v1.5H288.67a12.4,12.4,0,0,1-4-.66c-.43-.15-.86-.32-1.27-.51a11,11,0,0,1-1.22-.65,12.17,12.17,0,0,1-2.42-1.92,10.41,10.41,0,0,1-.83-.93,12.42,12.42,0,0,1-2.79-7.87v-46.2a12.55,12.55,0,0,1,12.54-12.54Z"/><path class="cls-2" d="M300,102.4v68.28H288.67a10.84,10.84,0,0,1-5.34-1.39,8.55,8.55,0,0,1-1.08-.68,10.16,10.16,0,0,1-1-.82,11.06,11.06,0,0,1-1.15-1.22c-.17-.21-.34-.43-.5-.66a11,11,0,0,1-1.95-6.27v-46.2a11.06,11.06,0,0,1,11-11Z"/><path d="M74.36,27.35A11.66,11.66,0,0,0,74,26h0c-.16-.43-.34-.84-.54-1.25h0a12.52,12.52,0,0,0-11.23-7H16A12.55,12.55,0,0,0,3.45,30.35V76.54a12.53,12.53,0,0,0,6,10.72,11,11,0,0,0,1.22.65,11.6,11.6,0,0,0,1.27.51,12.4,12.4,0,0,0,4,.66H62.18A12.55,12.55,0,0,0,74.72,76.54V30.35A12.9,12.9,0,0,0,74.36,27.35ZM74,34.48l-.75-.08V76.54a11,11,0,0,1-11,11H16a10.84,10.84,0,0,1-5.34-1.39,8.55,8.55,0,0,1-1.08-.68,10.16,10.16,0,0,1-1-.82A11,11,0,0,1,5,76.54V30.35a11,11,0,0,1,11-11h28.8l1.32-.75H62.18A11.79,11.79,0,0,1,74,30.35Z"/><path class="cls-2" d="M74,30.35v4.13l-.75-.08V76.54a11,11,0,0,1-11,11H16a10.84,10.84,0,0,1-5.34-1.39,8.55,8.55,0,0,1-1.08-.68,10.16,10.16,0,0,1-1-.82A11,11,0,0,1,5,76.54V30.35a11,11,0,0,1,11-11h28.8l1.32-.75H62.18A11.79,11.79,0,0,1,74,30.35Z"/><path class="cls-3" d="M62.18,18.56H46.11l-1.32.75H62.18a11,11,0,0,1,8.74,4.31,9.83,9.83,0,0,1,.74,1.08h0a10.26,10.26,0,0,1,.59,1.14,10.76,10.76,0,0,1,1,4.5v4l.75.08V30.35A11.79,11.79,0,0,0,62.18,18.56Z"/><path d="M156.61,26.86a11.46,11.46,0,0,0-.39-1.3,11.72,11.72,0,0,0-.55-1.26h0a12.53,12.53,0,0,0-11.22-7H98.24A12.56,12.56,0,0,0,85.7,29.86v46.2a12.55,12.55,0,0,0,6,10.72,12.06,12.06,0,0,0,1.23.65,9.9,9.9,0,0,0,1.27.51,12.34,12.34,0,0,0,4,.66h46.2A12.56,12.56,0,0,0,157,76.06V29.86A12.39,12.39,0,0,0,156.61,26.86Zm-1.13,49.2a11.06,11.06,0,0,1-11,11H98.24a10.83,10.83,0,0,1-5.33-1.39A8.55,8.55,0,0,1,91.83,85a11.57,11.57,0,0,1-1-.82,11,11,0,0,1-3.6-8.15V29.86a11,11,0,0,1,11-11h46.2a11,11,0,0,1,8.74,4.32,9,9,0,0,1,.75,1.08h0a9.32,9.32,0,0,1,.59,1.13,10.91,10.91,0,0,1,1,4.5Z"/><path class="cls-2" d="M155.48,29.86v46.2a11.06,11.06,0,0,1-11,11H98.24a10.83,10.83,0,0,1-5.33-1.39A8.55,8.55,0,0,1,91.83,85a11.57,11.57,0,0,1-1-.82,11,11,0,0,1-3.6-8.15V29.86a11,11,0,0,1,11-11h46.2a11,11,0,0,1,8.74,4.32,9,9,0,0,1,.75,1.08h0a9.32,9.32,0,0,1,.59,1.13A10.91,10.91,0,0,1,155.48,29.86Z"/><path class="cls-2" d="M237.73,29.37v46.2a11,11,0,0,1-11,11h-46.2a10.84,10.84,0,0,1-5.34-1.39,10.53,10.53,0,0,1-1.06-.67h0a11.19,11.19,0,0,1-1-.81h0a11,11,0,0,1-3.61-8.16V29.37a11.06,11.06,0,0,1,11-11h46.2a11,11,0,0,1,8.74,4.31,11.69,11.69,0,0,1,.75,1.09h0c.21.37.41.74.59,1.13A10.91,10.91,0,0,1,237.73,29.37Z"/><path d="M238.86,26.37a11.62,11.62,0,0,0-.39-1.31c-.16-.43-.35-.85-.55-1.26a12.56,12.56,0,0,0-11.23-7h-46.2A12.56,12.56,0,0,0,168,29.37v46.2A12.53,12.53,0,0,0,174,86.29a11,11,0,0,0,1.22.65,9.35,9.35,0,0,0,1.27.51,12.34,12.34,0,0,0,4,.66h46.2a12.56,12.56,0,0,0,12.54-12.54V29.37A12.33,12.33,0,0,0,238.86,26.37Zm-1.13,49.2a11,11,0,0,1-11,11h-46.2a10.84,10.84,0,0,1-5.34-1.39,10.53,10.53,0,0,1-1.06-.67h0a11.19,11.19,0,0,1-1-.81h0a11,11,0,0,1-3.61-8.16V29.37a11.06,11.06,0,0,1,11-11h46.2a11,11,0,0,1,8.74,4.31,11.69,11.69,0,0,1,.75,1.09h0c.21.37.41.74.59,1.13a10.91,10.91,0,0,1,1,4.5Z"/><path class="cls-2" d="M300,17.85V86.12H262.75a10.84,10.84,0,0,1-5.34-1.39,8.55,8.55,0,0,1-1.08-.68,10.16,10.16,0,0,1-1-.82,11,11,0,0,1-3.6-8.15V28.89a11,11,0,0,1,11-11Z"/><path d="M300,16.35v1.5H262.75a11,11,0,0,0-11,11V75.08a11,11,0,0,0,3.6,8.15,10.16,10.16,0,0,0,1,.82,8.55,8.55,0,0,0,1.08.68,10.84,10.84,0,0,0,5.34,1.39H300v1.5H262.75a12.4,12.4,0,0,1-4-.66,11.6,11.6,0,0,1-1.27-.51,11,11,0,0,1-1.22-.65,12.53,12.53,0,0,1-6-10.72V28.89a12.55,12.55,0,0,1,12.54-12.54Z"/><rect class="cls-4" x="30.37" y="103.11" width="69.77" height="69.77" rx="11.79"/><rect class="cls-5" x="112.38" y="102.63" width="69.77" height="69.77" rx="11.79"/><rect class="cls-6" x="194.58" y="102.22" width="69.77" height="69.77" rx="11.79"/><text class="cls-7" transform="translate(39.16 127.72)">L</text><text class="cls-7" transform="translate(121.34 127.72)">M</text><text class="cls-7" transform="translate(201.51 127.72)">S</text><polygon class="cls-4" points="264.72 239.79 275.79 201.8 264.72 201.8 270.66 187.45 270.97 186.7 276.56 186.7 276.43 187.45 275.1 195.08 285.48 195.08 264.72 239.79"/><path class="cls-8" d="M74,30.35v4.13l-.75-.08-4.35-.49L57.45,47.06,54,30l-16-6.8,6.86-3.89,1.32-.75H62.18A11.79,11.79,0,0,1,74,30.35Z"/><path class="cls-9" d="M43.57,208.23v33.91a11.78,11.78,0,0,1-2,6.65l-1.08.18-1.43.24-7.4,1.25-8.22,1.39a42.49,42.49,0,0,1,19.43-43.16Z"/><path class="cls-9" d="M107.22,237.7,99,239.09l-7.39,1.25-8.94,1.51L75.83,243a10.67,10.67,0,0,0-19-4.65,12.45,12.45,0,0,0-.75,1.14v-36.2l.75-.16q.72-.15,1.44-.27A42.5,42.5,0,0,1,107.22,237.7Z"/><path class="cls-10" d="M43.57,218.41v23.73a11.78,11.78,0,0,1-2,6.65h0l-1.08.18-1.42.24-7.4,1.25h0a34.13,34.13,0,0,1,11.21-31.41C43.06,218.83,43.31,218.62,43.57,218.41Z"/><path class="cls-10" d="M99,239.09l-7.39,1.25-8.94,1.51L75.83,243a10.67,10.67,0,0,0-19-4.65,12.45,12.45,0,0,0-.75,1.14v-27.6l.75-.21c.92-.24,1.87-.44,2.83-.6A34.17,34.17,0,0,1,99,239.09Z"/><path class="cls-5" d="M43.57,229.32v12.82a11.78,11.78,0,0,1-2,6.65h0l-1.08.18-1.42.24h0a26.55,26.55,0,0,1,3.81-18.78Q43.18,229.86,43.57,229.32Z"/><path class="cls-5" d="M91.61,240.34l-8.94,1.51L75.83,243a10.67,10.67,0,0,0-19-4.65,12.45,12.45,0,0,0-.75,1.14V219.76c.25-.1.5-.18.75-.26a25.92,25.92,0,0,1,4.08-1A26.68,26.68,0,0,1,91.61,240.34Z"/><path class="cls-8" d="M82.67,241.85,75.83,243a10.67,10.67,0,0,0-19-4.65,12.45,12.45,0,0,0-.75,1.14V229.8c.24-.15.49-.3.75-.43a17.2,17.2,0,0,1,5.59-2A17.61,17.61,0,0,1,82.67,241.85Z"/></g></g></svg>