<svg xmlns="http://www.w3.org/2000/svg" viewBox="0 0 200 200"><defs><style>.cls-1{fill:#b196c6;}.cls-2{fill:#faec57;}.cls-2,.cls-3,.cls-4,.cls-5,.cls-6{stroke:#1d1d1b;stroke-linecap:round;stroke-linejoin:round;stroke-width:1.5px;}.cls-3{fill:#f4b446;}.cls-4{fill:#f2c948;}.cls-5{fill:#e3e3e2;}.cls-6{fill:#eb5a4a;}.cls-7{fill:#1d1d1b;}</style></defs><g id="Слой_2" data-name="Слой 2"><g id="в1"><rect class="cls-1" width="200" height="200"/><polygon class="cls-2" points="94.19 121.56 94.19 182.07 45.16 167.09 45.16 126.62 75.72 136.45 78.44 137.32 79.31 136.45 94.19 121.56"/><polygon class="cls-2" points="94.19 120.79 94.19 121.56 79.31 136.45 78.44 137.32 75.72 136.45 45.16 126.62 29.41 121.56 45.16 105.81 94.19 120.79"/><polygon class="cls-2" points="143.21 126.63 143.21 167.09 94.19 182.07 94.19 121.56 109.94 137.32 143.21 126.63"/><polygon class="cls-2" points="158.97 121.56 143.21 126.63 109.94 137.32 94.19 121.56 94.19 120.79 143.21 105.81 158.97 121.56"/><polygon class="cls-3" points="94.19 90.82 94.19 120.79 45.16 105.81 45.16 105.8 94.19 90.82"/><polygon class="cls-4" points="143.21 105.8 143.21 105.81 94.19 120.79 94.19 90.82 143.21 105.8"/><path class="cls-5" d="M107.57,81.4h-.08l-48.9-8.83c-5.77-5.56,0-12.45,0-12.45L69.21,62l38.28,6.91h.08C105,76.65,107.57,81.4,107.57,81.4Z"/><polygon class="cls-6" points="149.11 27.75 146.37 30.47 137.9 38.87 107.57 68.95 107.49 68.94 69.21 62.03 58.59 60.11 97.39 21.63 97.45 21.64 149.11 27.75"/><path class="cls-5" d="M149.11,40.2l-2.74,2.72L107.57,81.4s-2.56-4.75,0-12.45L137.9,38.87l8.47-8.4,2.74-2.72C146.55,35.45,149.11,40.2,149.11,40.2Z"/><path class="cls-7" d="M92.55,52.2a4.39,4.39,0,0,1-.51.63,10.32,10.32,0,0,1-.75.72,6.58,6.58,0,0,1-.88.67,4.76,4.76,0,0,1-.91.48A5.87,5.87,0,0,1,88,55a10.38,10.38,0,0,1-1.9,0,9.46,9.46,0,0,1-1.39-.22,2,2,0,0,1-.73-.3.5.5,0,0,1-.2-.42,1.33,1.33,0,0,1,.21-.53,5.62,5.62,0,0,1,.48-.61,10,10,0,0,1,.73-.73,8,8,0,0,1,.91-.69,4.66,4.66,0,0,1,1-.51,5.34,5.34,0,0,1,1.48-.3,13.61,13.61,0,0,1,1.83.07,9.88,9.88,0,0,1,1.44.23,2.06,2.06,0,0,1,.74.33.42.42,0,0,1,.18.42A1.37,1.37,0,0,1,92.55,52.2ZM119.8,36.59A12.19,12.19,0,0,1,117,39.53a17.15,17.15,0,0,1-4.19,2.39,25.46,25.46,0,0,1-5.55,1.49,32,32,0,0,1-6.83.28l-4.74,4.42a2,2,0,0,1-1,.36,10.59,10.59,0,0,1-2,0c-.46,0-.84-.09-1.14-.14a3.43,3.43,0,0,1-.69-.17c-.16-.07-.25-.14-.26-.22s0-.18.14-.28l5-5.17a3.92,3.92,0,0,1,.84-.68,3.61,3.61,0,0,1,.92-.4,3.81,3.81,0,0,1,1-.17,7.22,7.22,0,0,1,1.12,0l.2,0a20.6,20.6,0,0,0,5.12-.06,17.52,17.52,0,0,0,4-1.06,11.73,11.73,0,0,0,3-1.69,8.7,8.7,0,0,0,1.86-2,3.5,3.5,0,0,0,.61-1.65,1.91,1.91,0,0,0-.44-1.39,3.8,3.8,0,0,0-1.57-1,10.21,10.21,0,0,0-2.84-.6,23.18,23.18,0,0,0-3.69-.09c-1.15.07-2.17.18-3.07.32s-1.66.26-2.26.38a4.77,4.77,0,0,1-1.29.14c-.22,0-.33-.09-.35-.21s.07-.31.25-.6a4.33,4.33,0,0,1,.35-.46,3.88,3.88,0,0,1,.54-.53,5.6,5.6,0,0,1,.66-.48,3.12,3.12,0,0,1,.71-.35,11,11,0,0,1,1.79-.4c.8-.13,1.71-.22,2.72-.3s2.06-.11,3.16-.12a30,30,0,0,1,3.08.13,25.31,25.31,0,0,1,3.67.6,12.28,12.28,0,0,1,2.56.93A4.79,4.79,0,0,1,120,32a3.47,3.47,0,0,1,.7,1.43,3.1,3.1,0,0,1-.1,1.56A6.26,6.26,0,0,1,119.8,36.59Z"/></g></g></svg>