<svg xmlns="http://www.w3.org/2000/svg" viewBox="0 0 300 100"><defs><style>.cls-1{fill:#b196c6;}.cls-2{fill:#eb5a4a;}.cls-2,.cls-3,.cls-4,.cls-5,.cls-6,.cls-7,.cls-8,.cls-9{stroke:#000;stroke-width:1.5px;}.cls-2,.cls-3,.cls-4,.cls-5,.cls-7,.cls-8,.cls-9{stroke-miterlimit:10;}.cls-3{fill:#ea6a5e;}.cls-4{fill:#e87a71;}.cls-5{fill:#e3e3e2;}.cls-6{fill:none;stroke-linecap:round;stroke-linejoin:round;}.cls-10,.cls-7{fill:#366eae;}.cls-8{fill:#688ac6;}.cls-9{fill:#e87971;}</style></defs><g id="Слой_2" data-name="Слой 2"><g id="Слой_8_копия2_" data-name="Слой 8 (копия2)"><rect class="cls-1" width="300" height="100"/><path class="cls-2" d="M206.93,26.65V80.7c0,3-2.74,5.5-6.07,5.5H80.6a5.82,5.82,0,0,1-6.06-5.5v-54a5.82,5.82,0,0,1,6.06-5.5H200.86C204.19,21.15,206.93,23.63,206.93,26.65Z"/><path class="cls-3" d="M204.19,23.46V77.51a5.82,5.82,0,0,1-6.06,5.5H77.86a5.81,5.81,0,0,1-6-5.5v-54a5.81,5.81,0,0,1,6-5.5H198.13A5.82,5.82,0,0,1,204.19,23.46Z"/><path class="cls-4" d="M201.46,20.27V74.32c0,3-2.73,5.5-6.07,5.5H75.13a5.82,5.82,0,0,1-6.06-5.5v-54a5.82,5.82,0,0,1,6.06-5.5H195.39C198.73,14.77,201.46,17.25,201.46,20.27Z"/><path class="cls-5" d="M201.46,20.58v54c0,3-2.73,5.5-6.07,5.5H75.13a5.81,5.81,0,0,1-6-5.5v-54a5.81,5.81,0,0,1,6-5.5H195.39C198.73,15.08,201.46,17.55,201.46,20.58Z"/><path class="cls-2" d="M201.46,20.57v6.88H69.07V20.57c0-3,2.73-5.5,6.07-5.5H195.4A5.82,5.82,0,0,1,201.46,20.57Z"/><path class="cls-2" d="M201.46,20.57v6.88H189.08V15.07H196A5.52,5.52,0,0,1,201.46,20.57Z"/><rect class="cls-2" x="176.71" y="14.96" width="12.38" height="12.38"/><rect class="cls-2" x="164.33" y="15.07" width="12.38" height="12.38"/><line class="cls-6" x1="193.28" y1="19.27" x2="197.26" y2="23.25"/><line class="cls-6" x1="197.26" y1="19.27" x2="193.28" y2="23.25"/><rect class="cls-6" x="180.53" y="18.9" width="4.73" height="4.73" rx="1.09"/><line class="cls-6" x1="168.53" y1="23.25" x2="172.51" y2="23.25"/><path class="cls-7" d="M159.49,48.86a48,48,0,0,1-9.28,28.85c-.63.84-1.28,1.64-2,2.41H114.59V5.48h8.29a33.1,33.1,0,0,1,23,9.59A39.86,39.86,0,0,1,150.21,20,48,48,0,0,1,159.49,48.86Z"/><path class="cls-8" d="M152.22,48.86c0,12.28-4.31,23.37-11.23,31.26H90.22C83.31,72.23,79,61.14,79,48.86,79,35.2,84.32,23,92.64,15.07a33.38,33.38,0,0,1,21-9.53c.65,0,1.3-.06,2-.06a33.1,33.1,0,0,1,23,9.59C146.9,23,152.22,35.2,152.22,48.86Z"/><path class="cls-9" d="M190.17,59.17c3.75,11.39-2.94,15.49-9.42,21H119.56c3.71-10.54,20-13,36.65-14.23,18.09-1.3,19.22-5.87,17.77-16-.92-6.42,15.43-7,27.48-6.57V47.3C193.61,48.88,186.33,47.45,190.17,59.17Z"/><path class="cls-7" d="M239.93,72c0,.35,0,.69,0,1a26.14,26.14,0,0,1-5.07,14.8,20.66,20.66,0,0,1-2.4,2.7,18.17,18.17,0,0,1-12.59,5.26H215.3V48.09h4.55a18.17,18.17,0,0,1,12.59,5.26,21.33,21.33,0,0,1,2.4,2.7,26.14,26.14,0,0,1,5.07,14.8C239.92,71.23,239.93,71.6,239.93,72Z"/><path class="cls-8" d="M235.68,71.74v.1a26.8,26.8,0,0,1-.24,3.61c-.06.4-.12.81-.19,1.2a24.62,24.62,0,0,1-7.06,13.72,18.17,18.17,0,0,1-12.59,5.26c-.36,0-.72,0-1.07,0A18.31,18.31,0,0,1,203,90.37a24.68,24.68,0,0,1-7.06-13.72c-.06-.39-.13-.8-.19-1.2a28.55,28.55,0,0,1-.24-3.61v-.1a28.26,28.26,0,0,1,.24-3.6c.06-.41.13-.81.19-1.21A24.68,24.68,0,0,1,203,53.21,18.31,18.31,0,0,1,214.53,48c.35,0,.71,0,1.07,0a18.17,18.17,0,0,1,12.59,5.26,24.62,24.62,0,0,1,7.06,13.72c.07.4.13.8.19,1.21A26.55,26.55,0,0,1,235.68,71.74Z"/><polygon class="cls-5" points="80.28 65.8 77 72.05 79.09 73.14 82.46 66.7 85.96 69.03 85.96 55.45 76.15 65.26 80.28 65.8"/><polygon class="cls-10" points="91.12 56.62 91.12 37.49 95.35 37.49 95.35 52.55 100.45 52.55 100.45 56.62 91.12 56.62"/><path d="M94.6,38.24V53.3h5.1v2.56H91.87V38.24H94.6m1.5-1.5H90.37V57.36H101.2V51.8H96.1V36.74Z"/><polygon class="cls-10" points="121.73 56.62 119.94 46.12 116.42 56.62 112.81 56.62 109.31 46.12 107.48 56.62 103.33 56.62 106.64 37.49 110.62 37.49 114.62 49.54 118.66 37.49 122.64 37.49 125.85 56.62 121.73 56.62"/><path d="M122,38.24,125,55.86h-2.6l-2.18-12.81-4.3,12.81h-2.53l-4.27-12.8-2.23,12.8h-2.63l3-17.62h2.81l4.54,13.67,4.58-13.67H122m1.27-1.5h-5.16l-.34,1-3.15,9.4-3.13-9.4-.34-1H106L105.79,38l-3.05,17.62-.3,1.75h5.67l.22-1.24,1.2-6.94,2.39,7.16.35,1H117l.35-1,2.4-7.15,1.18,6.93.21,1.24h5.65l-.3-1.74-3-17.63-.21-1.25Z"/><path class="cls-10" d="M134.54,57.08a6.46,6.46,0,0,1-3.62-1,7.81,7.81,0,0,1-2.45-2.82l-.34-.63,3.55-2.15.39.65c.76,1.28,1.62,1.92,2.55,1.92a1.91,1.91,0,0,0,1.28-.43,1.21,1.21,0,0,0,.48-.94,1.77,1.77,0,0,0-.39-1,12.73,12.73,0,0,0-2-1.84,20.73,20.73,0,0,1-3.95-3.87,5.09,5.09,0,0,1-.94-2.85,4.72,4.72,0,0,1,1.57-3.55A5.35,5.35,0,0,1,134.54,37a6.08,6.08,0,0,1,2.79.68,9.47,9.47,0,0,1,2.55,2.11l.5.56-3.15,2.79-.49-.62a3.09,3.09,0,0,0-2.25-1.44,1.35,1.35,0,0,0-.9.28.71.71,0,0,0-.3.56,1,1,0,0,0,.24.65A20.82,20.82,0,0,0,136,44.91c1.35,1.13,2.16,1.83,2.46,2.14a7.53,7.53,0,0,1,1.57,2.16,5.4,5.4,0,0,1,.48,2.29,5.21,5.21,0,0,1-1.68,4A6.06,6.06,0,0,1,134.54,57.08Z"/><path d="M134.54,37.78a5.28,5.28,0,0,1,2.45.6,8.59,8.59,0,0,1,2.33,1.94l-2,1.76a3.78,3.78,0,0,0-2.84-1.72,2.05,2.05,0,0,0-1.38.46,1.44,1.44,0,0,0-.57,1.13,1.83,1.83,0,0,0,.39,1.11,23.25,23.25,0,0,0,2.63,2.42c1.32,1.11,2.12,1.81,2.4,2.09a7.26,7.26,0,0,1,1.43,1.94,4.85,4.85,0,0,1,.41,2A4.52,4.52,0,0,1,138.36,55a5.37,5.37,0,0,1-3.82,1.37,5.67,5.67,0,0,1-3.21-.9,7.06,7.06,0,0,1-2.2-2.56l2.29-1.39c.92,1.52,2,2.29,3.2,2.29a2.65,2.65,0,0,0,1.77-.61,2,2,0,0,0,.74-1.51,2.51,2.51,0,0,0-.53-1.48,13.84,13.84,0,0,0-2.11-2,20.58,20.58,0,0,1-3.81-3.7,4.43,4.43,0,0,1-.81-2.44,4,4,0,0,1,1.34-3,4.62,4.62,0,0,1,3.33-1.26m0-1.5A6.15,6.15,0,0,0,130.18,38a5.46,5.46,0,0,0-1.81,4.1,6,6,0,0,0,1.06,3.27,21.25,21.25,0,0,0,4.11,4,11.67,11.67,0,0,1,1.85,1.71,1.05,1.05,0,0,1,.24.59c0,.06,0,.17-.22.37a1.13,1.13,0,0,1-.79.25c-.65,0-1.29-.52-1.91-1.56l-.77-1.29-1.29.78-2.29,1.38-1.23.74.68,1.27a8.59,8.59,0,0,0,2.69,3.09,7.24,7.24,0,0,0,4,1.15,6.84,6.84,0,0,0,4.85-1.78,6,6,0,0,0,1.91-4.55,6.32,6.32,0,0,0-.54-2.61A8.55,8.55,0,0,0,139,46.51c-.19-.19-.67-.64-2.5-2.18a19.71,19.71,0,0,1-2.4-2.19A.42.42,0,0,1,134,42l0,0s.12-.11.41-.11c.62,0,1.24.63,1.66,1.15l1,1.24,1.19-1,2-1.75,1.14-1-1-1.13A10,10,0,0,0,137.67,37a6.85,6.85,0,0,0-3.13-.76Z"/><path d="M204.87,67.08l-.85.85a1.45,1.45,0,0,0-.94-.51.58.58,0,0,0-.37.1.29.29,0,0,0-.13.24.32.32,0,0,0,.08.2,1.54,1.54,0,0,0,.42.26l.5.25a3,3,0,0,1,1.09.8,1.65,1.65,0,0,1-.24,2.17,2,2,0,0,1-1.44.49,2.3,2.3,0,0,1-1.91-.93l.85-.93a2.06,2.06,0,0,0,.56.46,1.21,1.21,0,0,0,.58.17.68.68,0,0,0,.44-.13.35.35,0,0,0,.16-.3c0-.21-.2-.42-.59-.62l-.47-.23c-.88-.45-1.33-1-1.33-1.68a1.48,1.48,0,0,1,.5-1.11,1.88,1.88,0,0,1,1.29-.46,2.17,2.17,0,0,1,1,.24A2.23,2.23,0,0,1,204.87,67.08Z"/><path d="M206,66.32h1.37v.62a2.37,2.37,0,0,1,.79-.57,2.23,2.23,0,0,1,.94-.2,1.7,1.7,0,0,1,.92.26,1.76,1.76,0,0,1,.67.73,2.14,2.14,0,0,1,.8-.73,2.17,2.17,0,0,1,1-.26,1.87,1.87,0,0,1,1,.28,1.57,1.57,0,0,1,.64.71,4,4,0,0,1,.19,1.42v3.21h-1.38V69a2.3,2.3,0,0,0-.24-1.26.78.78,0,0,0-.69-.33,1.05,1.05,0,0,0-.63.2,1.19,1.19,0,0,0-.42.56,3.54,3.54,0,0,0-.13,1.14v2.47h-1.39V69.14a3.5,3.5,0,0,0-.11-1.07,1,1,0,0,0-.32-.49.92.92,0,0,0-.53-.16,1,1,0,0,0-.62.21,1.13,1.13,0,0,0-.42.57,3.58,3.58,0,0,0-.14,1.16v2.43H206Z"/><path d="M219.59,66.32H221v5.47h-1.38v-.58a2.55,2.55,0,0,1-.8.55,2.16,2.16,0,0,1-.88.17,2.44,2.44,0,0,1-1.84-.82,2.9,2.9,0,0,1-.77-2,3,3,0,0,1,.75-2.08,2.38,2.38,0,0,1,1.82-.81,2.33,2.33,0,0,1,.92.19,2.38,2.38,0,0,1,.8.56Zm-1.44,1.12a1.38,1.38,0,0,0-1.06.45,1.81,1.81,0,0,0,0,2.33,1.39,1.39,0,0,0,1.05.45,1.44,1.44,0,0,0,1.08-.45,1.65,1.65,0,0,0,.42-1.18,1.6,1.6,0,0,0-.42-1.15A1.44,1.44,0,0,0,218.15,67.44Z"/><path d="M221.83,66.39H223v.69a1.51,1.51,0,0,1,.51-.62,1.23,1.23,0,0,1,.7-.21,1.32,1.32,0,0,1,.55.14l-.42,1.18a1,1,0,0,0-.4-.12.64.64,0,0,0-.54.4,3.66,3.66,0,0,0-.22,1.54v2.48h-1.36Z"/><path d="M226,64.3h1.38v2h.81V67.5h-.81v4.29H226V67.5h-.7V66.32h.7Z"/><path d="M205.79,73.66h1.41v6.06h2.05v1.35h-3.46Z"/><path d="M211,73.66h1.37l1.72,5.17,1.73-5.17h1.37l1.25,7.41h-1.37l-.79-4.68-1.57,4.68H213.5L212,76.39l-.82,4.68h-1.37Z"/><path d="M223.48,74.67l-1,.92a1.48,1.48,0,0,0-1.12-.76.66.66,0,0,0-.45.15.41.41,0,0,0-.18.33.54.54,0,0,0,.13.35,7.82,7.82,0,0,0,1,1c.54.45.86.74,1,.85a2.91,2.91,0,0,1,.6.83,2.07,2.07,0,0,1,.18.86,2,2,0,0,1-.63,1.51,2.26,2.26,0,0,1-1.64.59,2.53,2.53,0,0,1-1.38-.38,3.12,3.12,0,0,1-1-1.22l1.18-.72c.36.66.77,1,1.23,1a.89.89,0,0,0,.61-.21.61.61,0,0,0,.25-.48.83.83,0,0,0-.19-.51,4.94,4.94,0,0,0-.82-.77,8.29,8.29,0,0,1-1.56-1.52,1.89,1.89,0,0,1-.35-1.07,1.75,1.75,0,0,1,.58-1.32,2,2,0,0,1,1.45-.55,2.33,2.33,0,0,1,1.06.25A4.13,4.13,0,0,1,223.48,74.67Z"/></g></g></svg>