<svg xmlns="http://www.w3.org/2000/svg" viewBox="0 0 200 200"><defs><style>.cls-1{fill:#f4b446;}.cls-2,.cls-4{fill:none;stroke-linecap:round;stroke-linejoin:round;}.cls-2,.cls-3,.cls-4{stroke:#000;}.cls-2{stroke-width:3px;}.cls-3{fill:#e3e3e2;stroke-miterlimit:10;}.cls-3,.cls-4{stroke-width:1.5px;}.cls-5{fill:#688ac6;}</style></defs><g id="Слой_2" data-name="Слой 2"><g id="Слой_5" data-name="Слой 5"><rect class="cls-1" width="200" height="200"/><path class="cls-2" d="M133.29,72s.51-7.57,22.79-12.85,10.57-29.25,10.57-29.25"/><path class="cls-3" d="M47,94.77a44.54,44.54,0,0,0-8.44,16.48c-2.92,10.83-5.83,29.82,4.79,42.37,15.57,18.4,46.21-2.33,54.13-8.3s43.66-37.17,45.7-39.32a13.85,13.85,0,0,0,2.3-15.94c-3.83-7.66-13.79-23-26.81-32.68s-19.41-1-43.92,13.79A107.13,107.13,0,0,0,47,94.77Z"/><path class="cls-4" d="M72.55,73S84.78,75.45,107,121.13l4.49,4.25"/><path class="cls-4" d="M89.89,90.77c.26.4,14.32-8.54,18.32-8.23s5.41-6.54,4.42-5.78,11.6-10.09,18.66-7.42"/><path class="cls-5" d="M104.9,87.14a5.71,5.71,0,0,1-5.19-2.53c-1.72-3,.44-7.48,4.82-10a12.07,12.07,0,0,1,5.89-1.69,5.72,5.72,0,0,1,5.19,2.52,5.54,5.54,0,0,1-.17,5.33,11.8,11.8,0,0,1-4.65,4.68,12,12,0,0,1-5.89,1.7Z"/><path d="M110.42,73.66A5,5,0,0,1,115,75.81c1.52,2.64-.51,6.66-4.54,9a11.38,11.38,0,0,1-5.52,1.59,5,5,0,0,1-4.54-2.16c-1.52-2.63.51-6.65,4.54-9a11.24,11.24,0,0,1,5.52-1.59m0-1.5A12.81,12.81,0,0,0,104.15,74c-4.82,2.78-7.05,7.63-5.09,11a6.44,6.44,0,0,0,5.84,2.91,12.82,12.82,0,0,0,6.27-1.8c4.82-2.78,7-7.63,5.09-11-1.07-1.85-3.2-2.9-5.84-2.9Z"/><circle class="cls-3" cx="73.55" cy="113.88" r="4.75"/><circle class="cls-3" cx="62.38" cy="124.43" r="2.83"/><circle cx="75.07" cy="113.01" r="3.23"/><circle class="cls-3" cx="51.75" cy="113.88" r="4.75"/><circle cx="53.28" cy="113.01" r="3.23"/><path class="cls-4" d="M51.49,129.21s9.23,10.46,21.79,0"/></g></g></svg>